<?xml version="1.0" encoding="UTF-8"?>
<svg id="Layer_2" data-name="Layer 2" xmlns="http://www.w3.org/2000/svg" viewBox="0 0 33.37 33.39">
  <defs>
    <style>
      .cls-1 {
        fill: #6d6e71;
      }
    </style>
  </defs>
  <g id="Layer_1-2" data-name="Layer 1">
    <g>
      <path class="cls-1" d="m18.52,0c.97.22,1.95.42,2.91.65,3.35.81,6.14,2.56,8.48,5.07.52.56,1.14,1.18.42,1.91-.79.8-1.39.1-1.94-.49C23.62,2.04,16.44.66,10.36,3.67,4.79,6.43,1.36,12.67,2.25,18.42c1.04,6.69,5.85,11.66,12.29,12.66,5.52.86,10.18-.79,13.97-4.9.22-.24.46-.61.73-.64.43-.05,1.19.03,1.26.24.14.44.1,1.13-.18,1.47-1.95,2.43-4.44,4.14-7.39,5.16-9.09,3.15-18.93-1.53-21.97-10.46-.45-1.32-.65-2.73-.96-4.1v-2.9c.08-.16.2-.32.23-.49C1.34,7.92,5.04,3.48,11.22,1.17c1.61-.6,3.37-.79,5.07-1.17.74,0,1.49,0,2.23,0Z"/>
      <path class="cls-1" d="m29.57,15.78c-.74-.67-1.48-1.34-2.21-2.03-.49-.47-.86-1.04-.3-1.64.58-.62,1.19-.38,1.73.17,1.33,1.35,2.67,2.69,4.02,4.01.68.67.77,1.28.03,1.99-1.31,1.26-2.58,2.57-3.87,3.85-.51.5-1.1.92-1.73.26-.59-.62-.31-1.22.26-1.73.74-.67,1.49-1.32,2.24-1.99-.06-.12-.12-.24-.18-.36-.38-.02-.76-.06-1.13-.06-5.02,0-10.03,0-15.05,0-.33,0-.73.1-.99-.05-.37-.22-.87-.6-.89-.94-.02-.33.44-.78.79-1,.28-.17.72-.1,1.09-.1,4.94,0,9.88,0,14.82,0,.39,0,.78,0,1.17,0,.06-.13.12-.27.18-.4Z"/>
    </g>
  </g>
</svg>